<svg width="59" height="55" viewBox="0 0 59 55" fill="none" xmlns="http://www.w3.org/2000/svg">
<path d="M9.02427 13.6696H7.3847C6.93195 13.6696 6.56494 14.1069 6.56494 14.6465V16.6003C6.56494 17.1399 6.93195 17.5772 7.3847 17.5772H9.02427C9.47702 17.5772 9.84407 17.1399 9.84407 16.6003V14.6465C9.84407 14.1069 9.47702 13.6696 9.02427 13.6696Z" fill="#516077"/>
<path d="M15.5766 13.6696H13.937C13.4842 13.6696 13.1172 14.1069 13.1172 14.6465V16.6003C13.1172 17.1399 13.4842 17.5772 13.937 17.5772H15.5766C16.0293 17.5772 16.3964 17.1399 16.3964 16.6003V14.6465C16.3964 14.1069 16.0293 13.6696 15.5766 13.6696Z" fill="#516077"/>
<path d="M22.1342 13.6696H20.4946C20.0418 13.6696 19.6748 14.1069 19.6748 14.6465V16.6003C19.6748 17.1399 20.0418 17.5772 20.4946 17.5772H22.1342C22.5869 17.5772 22.9539 17.1399 22.9539 16.6003V14.6465C22.9539 14.1069 22.5869 13.6696 22.1342 13.6696Z" fill="#516077"/>
<path d="M59 5.86153C59 4.78254 58.2659 3.90769 57.3604 3.90769H56.5407C56.088 3.90769 55.7209 3.47027 55.7209 2.93077V1.95386C55.7209 0.874871 54.9867 0 54.0813 0H11.477C10.5716 0 9.83742 0.874871 9.83742 1.95386V2.93077C9.83742 3.47027 9.47038 3.90769 9.01766 3.90769H8.19786C7.29242 3.90769 6.55829 4.78254 6.55829 5.86153V7.81536H4.91873C4.0133 7.81536 3.27917 8.69023 3.27917 9.76922V10.7461C3.27917 11.2856 2.91208 11.7231 2.45936 11.7231H1.6396C0.734168 11.7231 0 12.5979 0 13.6769V48.8241C0 49.9031 0.734168 50.778 1.6396 50.778H2.45936C2.91208 50.778 3.27917 51.2154 3.27917 51.7549V52.7318C3.27917 53.8108 4.0133 54.6857 4.91873 54.6857H50.7961C51.7015 54.6857 52.4356 53.8108 52.4356 52.7318V48.8314V46.8776H57.3482C58.2537 46.8776 58.9878 46.0028 58.9878 44.9238V41.0234V5.8761L59 5.86153ZM43.9808 50.7707H4.11118C3.65846 50.7707 3.29138 50.3333 3.29138 49.7938V21.4777C3.29138 22.5567 4.02551 23.4315 4.93094 23.4315H49.1748V21.4777C49.1748 20.3987 48.4407 19.5238 47.5353 19.5238H3.29138V12.6927C3.29138 12.1532 3.65846 11.7158 4.11118 11.7158H48.3551C48.8078 11.7158 49.1748 12.1532 49.1748 12.6927V42.9626V44.5884V49.7938C49.1748 50.3333 48.8078 50.7707 48.3551 50.7707H43.9869H43.9808ZM52.4479 42.9626V13.6696C52.4479 12.5906 51.7137 11.7158 50.8083 11.7158H49.9885C49.5358 11.7158 49.1687 11.2783 49.1687 10.7388V9.76192C49.1687 8.68294 48.4346 7.80809 47.5291 7.80809H9.84355V4.87731C9.84355 4.33782 10.2106 3.90039 10.6633 3.90039H54.9072C55.3599 3.90039 55.727 4.33782 55.727 4.87731V36.773V41.9784C55.727 42.5179 55.3599 42.9553 54.9072 42.9553H52.4479V42.9626Z" fill="#516077"/>
</svg>
