<svg width="90" height="90" viewBox="0 0 90 90" fill="none" xmlns="http://www.w3.org/2000/svg">
<path fill-rule="evenodd" clip-rule="evenodd" d="M59.636 80.084C58.7673 79.8785 58.0176 79.7015 58.0176 79.0938C58.0176 78.2799 59.0166 78.1922 59.4461 78.1922C60.0415 78.1922 60.3799 78.2744 60.8236 78.4763C61.0388 78.3173 62.0207 77.5919 62.0207 77.5919C61.3735 77.1785 60.4014 76.8552 59.4564 76.8552C57.2039 76.8552 56.4014 78.0564 56.4014 79.1804C56.4014 80.7993 57.8051 81.1365 59.0436 81.4338C59.9137 81.6428 60.665 81.8231 60.665 82.4401C60.665 82.7565 60.4767 83.2877 59.2155 83.2877C58.3784 83.2877 57.4614 82.9928 56.8102 82.5166L56.2627 83.7721C56.9262 84.2907 58.0767 84.6246 59.2052 84.6246C61.0734 84.6246 62.2812 83.7161 62.2812 82.31C62.2812 80.7092 60.8759 80.3769 59.636 80.084Z" fill="white"/>
<path fill-rule="evenodd" clip-rule="evenodd" d="M67.4148 83.2459H65.3993V81.3234H67.4148C68.335 81.3234 68.8015 81.6434 68.8015 82.2847C68.8015 82.9279 68.3478 83.2459 67.4148 83.2459ZM65.3993 80.0731H67.1216H65.3993ZM65.3993 78.237H67.1216C68.2069 78.237 68.4347 78.7389 68.4347 79.1551C68.4347 79.7592 67.9805 80.0731 67.1216 80.0731H65.3993V78.237ZM69.1217 80.6234L69.044 80.598L69.116 80.5589C69.7324 80.2234 70.0716 79.6425 70.0716 78.9223C70.0716 77.7102 69.047 76.9867 67.3308 76.9867H63.7837V84.4962H67.5407C69.4092 84.4962 70.4384 83.7743 70.4384 82.4634C70.4384 81.5713 69.9586 80.9007 69.1217 80.6234Z" fill="white"/>
<path fill-rule="evenodd" clip-rule="evenodd" d="M75.9154 78.2342L77.6077 76.9839H71.9448V84.4934H77.6077V83.2431H73.5608V81.3206H77.0125V80.0703H73.5608V78.2342H75.9154Z" fill="white"/>
<path fill-rule="evenodd" clip-rule="evenodd" d="M80.7282 78.2367H82.1608C83.1963 78.2367 83.7663 78.7485 83.7663 79.6775C83.7663 80.6067 83.1963 81.1185 82.1608 81.1185H80.7282V78.2367ZM85.5 84.4959L83.8549 82.0562C84.8253 81.6319 85.385 80.795 85.385 79.6739C85.385 78.0162 84.1628 76.9867 82.1954 76.9867H79.1123V84.4959H80.7282V82.3688H82.1954C82.2414 82.3688 82.2867 82.3677 82.3319 82.3666L83.7677 84.4959H85.5Z" fill="white"/>
<path fill-rule="evenodd" clip-rule="evenodd" d="M52.6584 80.7393C52.6584 80.3579 52.6241 79.9841 52.5587 79.6213L51.2193 80.6112C51.2204 80.6541 51.221 80.6967 51.221 80.7393C51.221 83.3853 49.0742 85.5379 46.435 85.5379C43.7964 85.5379 41.6496 83.3853 41.6496 80.7393C41.6496 78.0934 43.7964 75.9408 46.435 75.9408C47.4354 75.9408 48.3646 76.2501 49.1331 76.7783L50.3438 75.8837C49.2753 75.0181 47.9158 74.4993 46.4353 74.4993C42.9982 74.4993 40.2119 77.2931 40.2119 80.7393C40.2119 84.1856 42.9982 86.9794 46.4353 86.9794C49.8721 86.9794 52.6584 84.1856 52.6584 80.7393Z" fill="white"/>
<path fill-rule="evenodd" clip-rule="evenodd" d="M51.3563 76.9237C51.6503 77.3049 51.9015 77.7204 52.1021 78.1642L46.4319 82.3545L44.0625 80.8654V79.0738L46.4319 80.5629L51.3563 76.9237Z" fill="white"/>
<path fill-rule="evenodd" clip-rule="evenodd" d="M73.1375 15.3968C72.6611 14.9192 72.3938 14.2717 72.3938 13.5962V5.32084C72.3938 4.0391 71.3575 3 70.0789 3H62.5595C61.2809 3 60.2446 4.0391 60.2446 5.32084V12.861C60.2446 14.1424 61.2809 15.1818 62.5595 15.1818H70.8087C71.4823 15.1818 72.1281 15.4498 72.6045 15.9274L72.6066 15.9296C73.0827 16.407 73.3503 17.0545 73.3503 17.73V65.4208C73.3503 66.7025 74.3866 67.7416 75.6649 67.7416H83.1846C84.4632 67.7416 85.4992 66.7025 85.4992 65.4208V18.4636C85.4992 17.1816 84.4632 16.1425 83.1846 16.1425H74.9333C74.2596 16.1425 73.6138 15.8744 73.1375 15.3968Z" fill="white"/>
<path fill-rule="evenodd" clip-rule="evenodd" d="M16.6388 42.2183L16.6483 42.2087C17.1244 41.7338 17.7686 41.4672 18.4397 41.4672H38.8498C40.1224 41.4672 41.1538 40.4327 41.1538 39.1567V30.8592C41.1538 30.1895 41.42 29.5474 41.8936 29.0747L41.9026 29.066C42.3787 28.5911 43.0229 28.3244 43.6946 28.3244H51.9555C53.2278 28.3244 54.2597 27.2899 54.2597 26.0139V18.4531C54.2597 17.1773 53.2278 16.1426 51.9555 16.1426H43.6935C43.0199 16.1426 42.3741 15.8743 41.898 15.397C41.4217 14.9193 41.1538 14.2718 41.1538 13.5964V5.31058C41.1538 4.03458 40.1224 3.00012 38.8498 3.00012H6.09242C4.79886 3.00012 3.75 4.05152 3.75 5.3491V12.8329C3.75 14.1302 4.79886 15.1819 6.09242 15.1819H39.5678C40.2423 15.1819 40.8889 15.4505 41.3658 15.9287C41.8427 16.4068 42.1108 17.0552 42.1108 17.7315V26.7435C42.1108 27.4167 41.8432 28.0624 41.3672 28.5375L41.3609 28.5438C40.8851 29.0187 40.2409 29.2854 39.5697 29.2854H19.1597C17.8874 29.2854 16.8557 30.3198 16.8557 31.5958V39.8868C16.8557 40.5584 16.5894 41.2024 16.1161 41.6775L16.1077 41.6855C15.634 42.1603 14.992 42.4273 14.3222 42.4273H6.05427C4.78169 42.4273 3.75 43.4617 3.75 44.7377V52.2986C3.75 53.5746 4.78142 54.6088 6.05427 54.6088H14.3307C15.0002 54.6088 15.6428 54.8755 16.1161 55.3506H16.1164C16.5897 55.8252 16.8557 56.4693 16.8557 57.1406V65.431C16.8557 66.707 17.8874 67.7412 19.1597 67.7415L51.917 67.7417C53.2109 67.7417 54.2597 66.6901 54.2597 65.3928V57.9089C54.2597 56.6116 53.2109 55.5599 51.917 55.5599L18.4394 55.5594C17.768 55.5594 17.1238 55.293 16.6478 54.8181L16.6388 54.8094C16.1654 54.3372 15.8992 53.6951 15.8992 53.0257V44.0022C15.8992 43.3325 16.1654 42.6907 16.6388 42.2183Z" fill="white"/>
<path fill-rule="evenodd" clip-rule="evenodd" d="M80.6651 38.5223L80.6351 38.492C80.5901 38.4472 80.5648 38.386 80.5648 38.3226V37.4411C80.5648 37.3089 80.4577 37.2012 80.3258 37.2012H78.1741C78.1109 37.2012 78.0499 37.1761 78.0052 37.131L77.9894 37.1152C77.9444 37.0704 77.9193 37.0092 77.9193 36.9455V34.7818C77.9193 34.649 77.8122 34.5419 77.6804 34.5419H76.8855C76.7536 34.5419 76.6465 34.649 76.6465 34.7818V41.0844C76.6465 41.2167 76.7536 41.3241 76.8855 41.3241H77.6804C77.8122 41.3241 77.9193 41.2167 77.9193 41.0844V37.1564L77.9493 37.1868C77.9943 37.2316 78.0194 37.2928 78.0194 37.3562V38.2379C78.0194 38.3701 78.1264 38.4775 78.2586 38.4775H80.41C80.4735 38.4775 80.5345 38.5029 80.5792 38.5477L80.595 38.5636C80.6397 38.6084 80.6651 38.6696 80.6651 38.733V41.0844C80.6651 41.2167 80.7722 41.3241 80.904 41.3241H81.6987C81.8305 41.3241 81.9379 41.2167 81.9379 41.0844V34.7818C81.9379 34.649 81.8305 34.5419 81.6987 34.5419H80.904C80.7722 34.5419 80.6651 34.649 80.6651 34.7818V38.5223Z" fill="#212121"/>
<path fill-rule="evenodd" clip-rule="evenodd" d="M80.5956 31.9044L80.5836 31.9165C80.5375 31.9626 80.4751 31.9886 80.41 31.9886H79.2946H78.179C78.1142 31.9886 78.0515 31.9626 78.0054 31.9165L77.9935 31.9044C77.9474 31.8583 77.9215 31.7957 77.9215 31.7304V28.0169C77.9215 27.9516 77.9474 27.8893 77.9935 27.8431L78.0057 27.8308C78.0518 27.7846 78.1144 27.7587 78.1793 27.7587H80.4094C80.4748 27.7587 80.537 27.7846 80.583 27.8308L80.5953 27.8431C80.6413 27.8893 80.6675 27.9516 80.6675 28.0169V28.8893C80.6675 29.0254 80.777 29.1352 80.9128 29.1352H81.6946C81.83 29.1352 81.9401 29.0254 81.9401 28.8893V28.1054C81.9401 27.9696 81.83 27.8592 81.6946 27.8592H80.8247C80.7596 27.8592 80.6969 27.8336 80.6512 27.7874L80.6392 27.7754C80.5931 27.7292 80.5672 27.6663 80.5672 27.6013V26.7286C80.5672 26.5928 80.4574 26.4824 80.3217 26.4824H78.2673C78.1316 26.4824 78.0218 26.5928 78.0218 26.7286V27.601C78.0218 27.6663 77.9959 27.7289 77.9499 27.7751L77.9379 27.7874C77.8918 27.8336 77.8294 27.8592 77.7643 27.8592H76.8942C76.7588 27.8592 76.6489 27.9696 76.6489 28.1054V31.6419C76.6489 31.7777 76.7588 31.8878 76.8942 31.8878H77.764C77.8294 31.8878 77.8915 31.9137 77.9376 31.9599L77.9499 31.9722C77.9959 32.0184 78.0218 32.081 78.0218 32.1463V33.0187C78.0218 33.1545 78.1316 33.2649 78.2673 33.2649H79.6672H80.3217C80.4574 33.2649 80.5672 33.1545 80.5672 33.0184V32.1463C80.5672 32.081 80.5931 32.0184 80.6392 31.9722L80.6503 31.961C80.6964 31.9148 80.7588 31.8889 80.8239 31.8889H81.6946C81.8303 31.8889 81.9404 31.7788 81.9404 31.643V30.8588C81.9404 30.723 81.8303 30.6126 81.6946 30.6126H80.9128C80.7773 30.6126 80.6675 30.723 80.6675 30.8588V31.7301C80.6675 31.7957 80.6416 31.8583 80.5956 31.9044Z" fill="#212121"/>
<path fill-rule="evenodd" clip-rule="evenodd" d="M80.5808 43.9494L80.5931 43.9617C80.6392 44.0079 80.6653 44.0705 80.6653 44.1361V47.849C80.6653 47.9146 80.6392 47.9772 80.5931 48.0233L80.5814 48.0351C80.5353 48.0813 80.4729 48.1072 80.4075 48.1075H78.1768C78.1117 48.1075 78.0493 48.0815 78.0033 48.0354L77.9913 48.0231C77.9452 47.9769 77.9193 47.9146 77.9193 47.849V44.1361C77.9193 44.0705 77.9452 44.0079 77.9913 43.9617L78.0035 43.9494C78.0496 43.9033 78.112 43.8773 78.1771 43.8773H80.4073C80.4727 43.8773 80.5348 43.9033 80.5808 43.9494ZM80.5648 43.7199V42.8475C80.5648 42.7114 80.4552 42.6013 80.3195 42.6013H78.2649C78.1294 42.6013 78.0196 42.7114 78.0196 42.8475V43.7199C78.0196 43.785 77.9937 43.8478 77.9477 43.894L77.9357 43.906C77.8896 43.9522 77.8272 43.9779 77.7621 43.9779H76.892C76.7566 43.9779 76.6465 44.0882 76.6465 44.2243V47.7608C76.6465 47.8966 76.7566 48.0069 76.892 48.0069H77.7618C77.8272 48.0069 77.8894 48.0326 77.9354 48.0788L77.9477 48.0911C77.9937 48.1373 78.0196 48.1998 78.0196 48.2651V49.1373C78.0196 49.2731 78.1294 49.3835 78.2649 49.3835H80.3195C80.4552 49.3835 80.5648 49.2731 80.5648 49.1373V48.2651C80.5648 48.1998 80.5909 48.1373 80.637 48.0911L80.6482 48.0796C80.6942 48.0334 80.7566 48.0078 80.8217 48.0078H81.6924C81.8278 48.0078 81.9376 47.8974 81.9376 47.7616V44.2243C81.9376 44.0882 81.8278 43.9779 81.6924 43.9779H80.8226C80.7572 43.9779 80.6948 43.9522 80.6487 43.906L80.637 43.894C80.5909 43.8478 80.5648 43.7852 80.5648 43.7199Z" fill="#212121"/>
<path fill-rule="evenodd" clip-rule="evenodd" d="M80.5808 52.0064L80.5931 52.0187C80.6392 52.0648 80.6653 52.1271 80.6653 52.1927V55.9059C80.6653 55.9712 80.6392 56.0338 80.5931 56.08L80.5814 56.092C80.5353 56.1382 80.4729 56.1641 80.4075 56.1641H78.1768C78.1117 56.1641 78.0493 56.1382 78.0033 56.092L77.9913 56.0797C77.9452 56.0338 77.9193 55.9712 77.9193 55.9057V52.1927C77.9193 52.1271 77.9452 52.0648 77.9913 52.0187L78.0035 52.0064C78.0496 51.9602 78.112 51.934 78.1771 51.934H80.4073C80.4727 51.934 80.5348 51.9602 80.5808 52.0064ZM80.5648 51.7768V50.9041C80.5648 50.7683 80.4552 50.658 80.3195 50.658H78.2649C78.1294 50.658 78.0196 50.7683 78.0196 50.9041V51.7766C78.0196 51.8419 77.9937 51.9044 77.9477 51.9506L77.9357 51.9629C77.8896 52.0091 77.8272 52.0348 77.7621 52.0348H76.892C76.7566 52.0348 76.6465 52.1452 76.6465 52.281V55.8174C76.6465 55.9532 76.7566 56.0636 76.892 56.0636H77.7618C77.8272 56.0636 77.8894 56.0893 77.9354 56.1355L77.9477 56.1477C77.9937 56.1939 78.0196 56.2568 78.0196 56.3218V57.194C78.0196 57.33 78.1294 57.4404 78.2649 57.4404L80.3195 57.4401C80.4552 57.4401 80.5648 57.33 80.5648 57.194V56.3218C80.5648 56.2565 80.5909 56.1939 80.637 56.1477L80.6482 56.1365C80.6942 56.0904 80.7566 56.0647 80.8217 56.0647H81.6924C81.8278 56.0647 81.9376 55.9543 81.9376 55.8182V52.281C81.9376 52.1452 81.8278 52.0348 81.6924 52.0348H80.8226C80.7572 52.0348 80.6948 52.0091 80.6487 51.9629L80.637 51.9509C80.5909 51.9047 80.5648 51.8419 80.5648 51.7768Z" fill="#212121"/>
<path fill-rule="evenodd" clip-rule="evenodd" d="M78.0194 18.6717V19.5441C78.0194 19.6097 77.9935 19.672 77.9474 19.7182L77.9354 19.7302C77.8894 19.7764 77.827 19.8026 77.7621 19.8026H76.8917C76.7563 19.8026 76.6465 19.9124 76.6465 20.0485V20.8324C76.6465 20.9682 76.7563 21.0786 76.8917 21.0786H77.7621C77.827 21.0786 77.8894 21.1043 77.9354 21.1505L77.9474 21.1628C77.9935 21.2089 78.0194 21.2715 78.0194 21.3368V22.2092C78.0194 22.345 78.1292 22.4554 78.2649 22.4554H80.4075C80.4727 22.4554 80.5348 22.4811 80.5809 22.5273L80.5931 22.5396C80.6392 22.5857 80.6651 22.6483 80.6651 22.7136V23.6735C80.6651 23.7388 80.6392 23.8011 80.5931 23.8473L80.5809 23.8596C80.5351 23.9057 80.4727 23.9317 80.4075 23.9317H76.8917C76.7563 23.9317 76.6465 24.0418 76.6465 24.1776V24.9618C76.6465 25.0976 76.7563 25.2077 76.8917 25.2077H80.3193C80.455 25.2077 80.5648 25.0976 80.5648 24.9618V24.0893C80.5648 24.024 80.5909 23.9615 80.6367 23.9153L80.6479 23.9041C80.6939 23.8579 80.7564 23.8322 80.8215 23.8322H81.6924C81.8281 23.8322 81.9379 23.7218 81.9379 23.5858V22.8019C81.9379 22.6661 81.8281 22.556 81.6924 22.556H80.8223C80.7574 22.556 80.6948 22.53 80.6487 22.4838L80.6367 22.4715C80.5909 22.4254 80.5648 22.3631 80.5648 22.2978V21.4253C80.5648 21.2893 80.455 21.1791 80.3193 21.1791H78.1769C78.1117 21.1791 78.0493 21.1532 78.0033 21.107L77.991 21.0947C77.9452 21.0485 77.9193 20.9862 77.9193 20.9207V19.9603C77.9193 19.895 77.9452 19.8324 77.991 19.7862L78.0033 19.7736C78.0493 19.7277 78.112 19.7018 78.1769 19.7018H81.6924C81.8281 19.7018 81.9379 19.5914 81.9379 19.4556V18.6717C81.9379 18.5359 81.8281 18.4258 81.6924 18.4258H78.2649C78.1292 18.4258 78.0194 18.5359 78.0194 18.6717Z" fill="#212121"/>
<path fill-rule="evenodd" clip-rule="evenodd" d="M78.0057 64.1516L77.9934 64.1393C77.9474 64.0931 77.9215 64.0308 77.9215 63.9652V58.9637C77.9215 58.8279 77.8117 58.7175 77.676 58.7175H76.8942C76.7587 58.7175 76.6489 58.8279 76.6489 58.9637V63.877C76.6489 64.0128 76.7587 64.1232 76.8942 64.1232H77.7643C77.8294 64.1232 77.8918 64.1488 77.9379 64.195L77.9498 64.2073C77.9959 64.2535 78.0218 64.3161 78.0218 64.3814V65.2538C78.0218 65.3896 78.1316 65.5 78.267 65.5H81.6946C81.83 65.5 81.9401 65.3896 81.9401 65.2538V64.4699C81.9401 64.3338 81.83 64.2237 81.6946 64.2237H78.1793C78.1139 64.2237 78.0518 64.1978 78.0057 64.1516Z" fill="#212121"/>
</svg>
